<?xml version="1.0" encoding="UTF-8" standalone="no"?>
<!DOCTYPE svg PUBLIC "-//W3C//DTD SVG 1.1//EN"
 "http://www.w3.org/Graphics/SVG/1.1/DTD/svg11.dtd">
<!-- Generated by graphviz version 2.47.0 (20210316.0004)
 -->
<!-- Title: dependencies Pages: 1 -->
<svg width="668pt" height="222pt"
 viewBox="0.00 0.00 668.00 222.00" xmlns="http://www.w3.org/2000/svg" xmlns:xlink="http://www.w3.org/1999/xlink">
<g id="graph0" class="graph" transform="scale(1 1) rotate(0) translate(4 218)">
<title>dependencies</title>
<polygon fill="white" stroke="transparent" points="-4,4 -4,-218 664,-218 664,4 -4,4"/>
<text text-anchor="start" x="309.01" y="-42.4" font-family="Times-12" font-weight="bold" font-size="14.00">Legend</text>
<polygon fill="#ffffb3" stroke="transparent" points="96,-10 96,-30 116,-30 116,-10 96,-10"/>
<text text-anchor="start" x="119.63" y="-15.4" font-family="Times-12" font-size="14.00"> &#160;Declarations</text>
<polygon fill="#8dd3c7" stroke="transparent" points="209,-10 209,-30 229,-30 229,-10 209,-10"/>
<text text-anchor="start" x="232.73" y="-15.4" font-family="Times-12" font-size="14.00"> &#160;Module</text>
<polygon fill="#80b1d3" stroke="transparent" points="295,-10 295,-30 315,-30 315,-10 295,-10"/>
<text text-anchor="start" x="318.78" y="-15.4" font-family="Times-12" font-size="14.00"> &#160;Bootstrap</text>
<polygon fill="#fdb462" stroke="transparent" points="392,-10 392,-30 412,-30 412,-10 392,-10"/>
<text text-anchor="start" x="415.67" y="-15.4" font-family="Times-12" font-size="14.00"> &#160;Providers</text>
<polygon fill="#fb8072" stroke="transparent" points="488,-10 488,-30 508,-30 508,-10 488,-10"/>
<text text-anchor="start" x="511.73" y="-15.4" font-family="Times-12" font-size="14.00"> &#160;Exports</text>
<g id="clust7" class="cluster">
<title>cluster_AppModule</title>
<polygon fill="none" stroke="black" stroke-dasharray="1,5" points="8,-70 8,-198 236,-198 236,-70 8,-70"/>
</g>
<g id="clust9" class="cluster">
<title>cluster_AppModule_imports</title>
<polygon fill="none" stroke="black" points="16,-78 16,-130 228,-130 228,-78 16,-78"/>
</g>
<g id="clust13" class="cluster">
<title>cluster_HelperModule</title>
<polygon fill="none" stroke="black" stroke-dasharray="1,5" points="244,-138 244,-206 652,-206 652,-138 244,-138"/>
</g>
<g id="clust16" class="cluster">
<title>cluster_HelperModule_exports</title>
<polygon fill="none" stroke="black" points="410,-146 410,-198 644,-198 644,-146 410,-146"/>
</g>
<g id="clust18" class="cluster">
<title>cluster_HelperModule_providers</title>
<polygon fill="none" stroke="black" points="252,-146 252,-198 402,-198 402,-146 252,-146"/>
</g>
<!-- ApiModule -->
<g id="node1" class="node">
<title>ApiModule</title>
<polygon fill="#8dd3c7" stroke="black" points="104.05,-122 101.05,-126 80.05,-126 77.05,-122 23.95,-122 23.95,-86 104.05,-86 104.05,-122"/>
<text text-anchor="middle" x="64" y="-99.8" font-family="Times,serif" font-size="14.00">ApiModule</text>
</g>
<!-- AppModule -->
<g id="node3" class="node">
<title>AppModule</title>
<polygon fill="#8dd3c7" stroke="black" points="158.66,-190 155.66,-194 134.66,-194 131.66,-190 75.34,-190 75.34,-154 158.66,-154 158.66,-190"/>
<text text-anchor="middle" x="117" y="-167.8" font-family="Times,serif" font-size="14.00">AppModule</text>
</g>
<!-- ApiModule&#45;&gt;AppModule -->
<g id="edge1" class="edge">
<title>ApiModule&#45;&gt;AppModule</title>
<path fill="none" stroke="black" d="M89.72,-122.22C89.72,-122.22 89.72,-143.73 89.72,-143.73"/>
<polygon fill="black" stroke="black" points="86.22,-143.73 89.72,-153.73 93.22,-143.73 86.22,-143.73"/>
</g>
<!-- HelperModule -->
<g id="node2" class="node">
<title>HelperModule</title>
<polygon fill="#8dd3c7" stroke="black" points="219.64,-122 216.64,-126 195.64,-126 192.64,-122 122.36,-122 122.36,-86 219.64,-86 219.64,-122"/>
<text text-anchor="middle" x="171" y="-99.8" font-family="Times,serif" font-size="14.00">HelperModule</text>
</g>
<!-- HelperModule&#45;&gt;AppModule -->
<g id="edge2" class="edge">
<title>HelperModule&#45;&gt;AppModule</title>
<path fill="none" stroke="black" d="M140.5,-122.22C140.5,-122.22 140.5,-143.73 140.5,-143.73"/>
<polygon fill="black" stroke="black" points="137,-143.73 140.5,-153.73 144,-143.73 137,-143.73"/>
</g>
<!-- ConfigService  -->
<g id="node4" class="node">
<title>ConfigService </title>
<polygon fill="#fb8072" stroke="black" points="636.37,-190 535.63,-190 535.63,-154 636.37,-154 636.37,-190"/>
<text text-anchor="middle" x="586" y="-167.8" font-family="Times,serif" font-size="14.00">ConfigService </text>
</g>
<!-- HelperModule&#45;&gt;ConfigService  -->
<g id="edge3" class="edge">
<title>HelperModule&#45;&gt;ConfigService </title>
<path fill="none" stroke="black" stroke-dasharray="5,2" d="M219.83,-98C329.53,-98 586,-98 586,-98 586,-98 586,-143.71 586,-143.71"/>
<polygon fill="black" stroke="black" points="582.5,-143.71 586,-153.71 589.5,-143.71 582.5,-143.71"/>
</g>
<!-- PrismaService  -->
<g id="node5" class="node">
<title>PrismaService </title>
<polygon fill="#fb8072" stroke="black" points="518.36,-190 417.64,-190 417.64,-154 518.36,-154 518.36,-190"/>
<text text-anchor="middle" x="468" y="-167.8" font-family="Times,serif" font-size="14.00">PrismaService </text>
</g>
<!-- HelperModule&#45;&gt;PrismaService  -->
<g id="edge4" class="edge">
<title>HelperModule&#45;&gt;PrismaService </title>
<path fill="none" stroke="black" stroke-dasharray="5,2" d="M219.71,-110C303.97,-110 468,-110 468,-110 468,-110 468,-143.73 468,-143.73"/>
<polygon fill="black" stroke="black" points="464.5,-143.73 468,-153.73 471.5,-143.73 464.5,-143.73"/>
</g>
<!-- PrismaService -->
<g id="node6" class="node">
<title>PrismaService</title>
<ellipse fill="#fdb462" stroke="black" cx="327" cy="-172" rx="66.63" ry="18"/>
<text text-anchor="middle" x="327" y="-167.8" font-family="Times,serif" font-size="14.00">PrismaService</text>
</g>
<!-- PrismaService&#45;&gt;HelperModule -->
<g id="edge5" class="edge">
<title>PrismaService&#45;&gt;HelperModule</title>
<path fill="none" stroke="black" d="M260.18,-172C225.1,-172 189.32,-172 189.32,-172 189.32,-172 189.32,-132.22 189.32,-132.22"/>
<polygon fill="black" stroke="black" points="192.82,-132.22 189.32,-122.22 185.82,-132.22 192.82,-132.22"/>
</g>
</g>
</svg>
